<svg width="47" height="74" viewBox="0 0 47 74" fill="none" xmlns="http://www.w3.org/2000/svg">
<g clip-path="url(#clip0_101_69)">
<path d="M46.0117 21.1259C45.9403 20.2102 45.6447 19.3932 45.1795 18.8254L31.0806 1.61892C30.1223 0.449428 28.7314 0.71508 27.9804 2.21168L14.3222 29.4335L5.25952 38.919C5.25934 38.9191 5.25916 38.9194 5.25889 38.9195L2.75729 41.5379L1.01024 43.3666C0.979475 43.3988 0.949339 43.432 0.919924 43.4663C0.477967 43.9793 0.177962 44.72 0.0707335 45.5693C-0.0433314 46.4731 0.0746017 47.3919 0.402763 48.1563L0.403933 48.159C0.403933 48.1591 0.404023 48.1593 0.404113 48.1594L2.51998 53.0884L3.25295 54.796L7.52202 64.741C7.52202 64.741 7.52211 64.7411 7.52211 64.7413L8.23034 66.3911L10.3646 71.3629C10.79 72.3539 11.4898 72.8897 12.2021 72.8897C12.6247 72.8897 13.0518 72.701 13.4287 72.3067L13.43 72.3053C13.4302 72.305 13.4305 72.3048 13.4306 72.3047L17.5788 67.963L19.4112 70.1992C19.8139 70.6904 20.2926 70.9285 20.7682 70.9285C21.4251 70.9285 22.0759 70.4744 22.5115 69.6064L29.7031 55.273L40.1878 44.2992C40.2015 44.2869 40.2157 44.2766 40.2292 44.2627L44.4779 39.8155C44.9693 39.3012 45.303 38.5189 45.4173 37.6129C45.5314 36.7091 45.4134 35.7903 45.0853 35.0259L45.0829 35.0205C45.0826 35.0198 45.0823 35.019 45.082 35.0183L42.677 29.4155L45.5572 23.675C45.9218 22.9476 46.0833 22.0425 46.0117 21.1259ZM5.9735 47.3857C5.70858 49.484 5.00809 51.3363 3.97701 52.6969L1.83388 47.7045L1.52443 46.9835C1.39678 46.686 1.35082 46.3284 1.39525 45.9767C1.43421 45.6681 1.53847 45.3966 1.69202 45.1993C1.71397 45.1712 1.737 45.1444 1.76093 45.1194L2.97183 43.852L5.41865 41.2911C6.04097 43.1607 6.23825 45.2884 5.9735 47.3857ZM12.6786 70.5527C12.2835 70.9646 11.7484 70.8008 11.4849 70.1869L11.4554 70.1182L9.03994 64.4912C11.5084 62.4905 14.5557 63.4169 16.3474 66.7128L12.6786 70.5527ZM21.4496 68.3041C21.1568 68.8876 20.6148 68.9918 20.2414 68.5361L18.7592 66.7271L26.0914 59.0529L21.4496 68.3041ZM39.5144 35.7961C39.7793 33.6978 40.4798 31.8454 41.5109 30.4847L43.9623 36.1958C44.0893 36.4929 44.1349 36.8496 44.0905 37.2005C44.046 37.5532 43.9162 37.8576 43.7249 38.0579L40.0677 41.8857C39.4466 40.0174 39.2499 37.8915 39.5144 35.7961ZM44.4953 22.3729L41.886 27.5733L35.1214 11.8147C34.4435 10.2354 33.0689 9.81209 32.0572 10.8709L26.0796 17.1273C25.3547 17.8862 26.1053 19.6384 26.8304 18.8803L28.0113 17.6441C29.434 20.3801 31.546 21.8482 33.6951 21.8482C34.8906 21.8482 36.0971 21.3921 37.2031 20.4497L40.7557 28.7256C39.4277 30.4064 38.5253 32.736 38.1905 35.3874C37.856 38.0358 38.1235 40.7234 38.9413 43.0642L28.8571 53.6189C28.8561 53.62 28.855 53.621 28.854 53.6221L17.4732 65.534C15.2588 61.28 11.3778 60.0965 8.28467 62.7322L4.73192 54.4559C6.05986 52.7751 6.96231 50.4455 7.29713 47.7941C7.63176 45.1439 7.36369 42.4544 6.54446 40.1124L23.6961 22.1605C24.4209 21.4017 23.6702 19.649 22.9453 20.4075L17.9336 25.6531L29.0421 3.51364C29.3349 2.9303 29.8768 2.82596 30.2504 3.28188L44.3492 20.4883C44.5299 20.7088 44.6446 21.0259 44.6724 21.3815C44.7002 21.7378 44.6373 22.0898 44.4953 22.3729ZM32.808 12.6305C33.2035 12.2169 33.7393 12.3806 34.0031 12.995L35.239 15.874L36.4481 18.6907C33.9795 20.6915 30.9322 19.765 29.1407 16.4692L32.808 12.6305Z" fill="white"/>
<path d="M17.8077 30.0897C15.8407 32.1487 14.505 35.2808 14.0468 38.9094C13.5889 42.5362 14.0627 46.2249 15.3809 49.2955C16.7037 52.3772 18.7164 54.4653 21.0482 55.1752C21.8777 55.4275 22.148 53.3611 21.3061 53.1045C19.3291 52.5026 17.6228 50.7325 16.5013 48.12C15.384 45.5175 14.9825 42.3914 15.3706 39.3176C15.7589 36.2424 16.891 33.5876 18.5585 31.8424C22.0003 28.24 26.6775 29.6821 28.9847 35.0569C30.1019 37.6596 30.5034 40.7857 30.1153 43.8594C29.727 46.9346 28.5949 49.5893 26.9274 51.3344C26.2712 52.0213 25.5573 52.5395 24.8054 52.8746C23.9664 53.2484 24.3364 55.2769 25.1754 54.9032C26.0627 54.5076 26.9048 53.8967 27.6781 53.0872C29.6452 51.0283 30.9809 47.8963 31.439 44.2678C31.897 40.6408 31.4232 36.9522 30.105 33.8814C27.3836 27.5421 21.8673 25.8409 17.8077 30.0897Z" fill="white"/>
<path d="M33.018 31.8897C33.1471 31.8897 33.2776 31.8319 33.3928 31.7112L36.5689 28.387C36.8785 28.0628 36.9614 27.4077 36.7542 26.9237C36.5469 26.4396 36.1278 26.3101 35.8182 26.634L32.6421 29.9582C32.3326 30.2824 32.2496 30.9374 32.4568 31.4215C32.5869 31.7255 32.8004 31.8897 33.018 31.8897Z" fill="white"/>
<path d="M12.0931 51.4661L8.91707 54.7903C8.60753 55.1143 8.52459 55.7694 8.73176 56.2535C8.86193 56.5574 9.07539 56.7216 9.293 56.7216C9.42209 56.7216 9.55252 56.6638 9.66776 56.5432L12.8438 53.2189C13.1533 52.8949 13.2362 52.2398 13.0291 51.7558C12.8216 51.2717 12.4027 51.1419 12.0931 51.4661Z" fill="white"/>
<path d="M25.1393 49.2169C25.6479 50.4019 26.7309 49.139 26.2597 48.0415L25.8962 47.1948C26.869 45.6275 26.9006 43.4591 26.458 41.9253C25.7273 39.3937 24.2247 39.1847 22.6991 39.747L21.1685 36.1813C21.553 35.9861 21.8526 36.037 21.8822 36.0426C22.7411 36.2362 22.9396 34.1636 22.0814 33.9563C22.0347 33.9452 21.2697 33.7753 20.3994 34.3896L20.1025 33.6981C19.6163 32.5659 18.4959 33.7412 18.9821 34.8735L19.3059 35.6279C18.6048 36.8034 18.402 38.5304 18.8088 40.0168C19.4047 42.1951 20.7402 42.454 22.0829 42.0972L24.0525 46.6856C23.6622 47.017 23.3482 47.1203 22.7588 47.1314C21.9063 47.1475 21.942 49.2611 22.7751 49.2407C23.6945 49.2233 24.2254 48.967 24.8066 48.4422L25.1393 49.2169ZM20.7573 40.1454C20.4777 40.1132 20.1999 39.7371 20.0495 39.1872C19.9204 38.7156 19.8754 38.0421 20.0941 37.4637L21.2422 40.1382C21.0692 40.1579 20.9058 40.1624 20.7573 40.1454ZM23.547 41.5922C24.6574 41.1472 25.1143 42.3987 25.2281 42.7929C25.4415 43.5323 25.4575 44.5359 25.1094 45.3618L23.4994 41.611C23.5154 41.6046 23.5307 41.5988 23.547 41.5922Z" fill="white"/>
</g>
<defs>
<clipPath id="clip0_101_69">
<rect width="47" height="72.3816" fill="white" transform="translate(0 0.889771)"/>
</clipPath>
</defs>
</svg>
