<svg width="43" height="42" viewBox="0 0 43 42" fill="none" xmlns="http://www.w3.org/2000/svg">
<path d="M14.6122 42C15.1066 42.0001 15.6003 41.9592 16.0882 41.8779C16.2448 41.8522 16.4057 41.821 16.5653 41.7851C17.4596 41.5849 18.3187 41.2483 19.1133 40.7869C21.4851 39.4141 23.3533 36.9079 24.3737 33.73C24.7171 32.6541 24.9599 31.5479 25.0988 30.4259C25.437 30.4594 25.7782 30.4781 26.1228 30.4781C28.2122 30.4781 30.4071 29.8658 32.5635 28.6704C35.3508 27.1253 37.8189 24.7373 39.7009 21.7647C43.9546 15.0486 44.0709 7.07474 39.9782 2.80528C39.2759 2.07114 38.4564 1.46226 37.5543 1.00422C34.8404 -0.375688 31.4993 -0.332152 28.1469 1.12657C24.8437 2.5637 21.8199 5.25804 19.6324 8.71267C18.9857 9.73311 18.4232 10.8059 17.9506 11.9201C16.0338 10.4917 13.8826 9.66939 11.6777 9.64123C10.9873 9.63251 10.2982 9.70406 9.62391 9.85446C9.31416 9.92347 9.00834 10.0095 8.7078 10.1121C5.82825 11.0871 3.50103 13.5166 2.15498 16.9535C0.828476 20.3386 0.578255 24.4111 1.45017 28.4195C3.17541 36.3551 8.77969 42 14.6122 42V42ZM39.4384 4.32913C40.8534 6.09998 41.6021 8.56944 41.5592 11.3701C41.5104 14.5612 40.4311 17.9805 38.5204 20.997C36.7648 23.7699 34.4721 25.9921 31.8903 27.4234C29.6911 28.6425 27.385 29.1973 25.3148 29.0186C29.3929 25.773 32.1389 21.1105 33.0222 15.9324C33.7279 11.8187 35.6942 8.03463 38.6421 5.1174L39.4384 4.32913ZM36.2805 3.58173L37.3596 2.51403C37.4473 2.56637 37.5355 2.62012 37.6226 2.67636C37.9162 2.86749 38.1965 3.07892 38.4615 3.30914L37.6621 4.0999C34.5031 7.22588 32.396 11.2809 31.6399 15.6892C30.8762 20.1664 28.6176 24.2418 25.2424 27.2327C25.2234 26.6577 25.1809 26.0789 25.1146 25.4963C28.0146 22.4401 29.9461 18.5748 30.661 14.3972C31.3585 10.2806 33.326 6.49404 36.2805 3.58173V3.58173ZM20.8127 9.48041C24.693 3.35232 31.1632 0.187702 35.9947 1.87814L35.3006 2.56494C32.1346 5.68548 30.0264 9.74285 29.2789 14.154C28.6755 17.6823 27.1401 20.9791 24.8358 23.694C24.8049 23.536 24.7729 23.378 24.7385 23.2199C23.8087 18.9434 21.735 15.2946 19.0824 12.8593C19.5547 11.6812 20.134 10.55 20.8127 9.48041V9.48041ZM12.3522 12.2329L12.3633 11.1045C14.5997 11.3385 16.8544 12.5438 18.7823 14.5506C20.979 16.8376 22.6079 20.0252 23.369 23.5259C24.0997 26.8876 23.9828 30.3554 23.0404 33.2904C22.3189 35.5366 21.1413 37.3966 19.6577 38.6689C20.2663 33.4502 18.9443 28.1883 15.9474 23.8999C13.6015 20.5493 12.3444 16.5411 12.3509 12.4329C12.3509 12.3666 12.3509 12.3011 12.3518 12.2329H12.3522ZM9.61242 12.8448L9.62671 11.3166C9.72569 11.2899 9.82512 11.2651 9.92524 11.2428C10.2664 11.1669 10.6123 11.1148 10.9606 11.0869L10.9495 12.2172C10.9486 12.2895 10.9486 12.3608 10.9486 12.4331C10.9415 16.8354 12.2886 21.1305 14.8024 24.7209C17.6365 28.7762 18.8646 33.7622 18.2433 38.6914L18.115 39.7186C17.6936 39.939 17.2528 40.1191 16.7984 40.2568L16.8949 39.4821C17.0056 38.5934 17.0613 37.6986 17.0614 36.8029C17.069 32.3995 15.7219 28.1033 13.2076 24.512C10.8216 21.1062 9.56273 17.0213 9.61198 12.8448H9.61242ZM8.21841 11.848L8.2092 12.8309C8.15652 17.3063 9.5055 21.6833 12.0622 25.3328C14.4086 28.6841 15.6658 32.6932 15.6589 36.8023C15.6587 37.6384 15.6067 38.4736 15.5032 39.3031L15.3486 40.5423C12.8519 40.7821 10.2552 39.7698 7.9809 37.6547C5.48614 35.3344 3.65341 31.946 2.82025 28.1137C1.27342 21.0034 3.62623 14.125 8.21841 11.848V11.848Z" fill="#BC9A6C"/>
<path d="M24.9742 8.8612C25.1515 8.86141 25.3222 8.79339 25.4518 8.67089C25.746 8.3935 26.0553 8.12535 26.3711 7.87391C26.4435 7.81623 26.504 7.74466 26.5492 7.66329C26.5943 7.58191 26.6232 7.49233 26.6341 7.39965C26.6451 7.30697 26.6379 7.21301 26.613 7.12313C26.5882 7.03325 26.5461 6.94922 26.4892 6.87583C26.4322 6.80244 26.3616 6.74113 26.2813 6.69539C26.201 6.64966 26.1126 6.62041 26.0212 6.6093C25.9297 6.59819 25.837 6.60545 25.7483 6.63065C25.6596 6.65585 25.5767 6.69851 25.5043 6.75619C25.1582 7.03162 24.819 7.3258 24.4961 7.62993C24.3929 7.72718 24.321 7.85366 24.2898 7.99289C24.2586 8.13213 24.2694 8.27767 24.321 8.41055C24.3726 8.54343 24.4624 8.65749 24.5789 8.73788C24.6953 8.81826 24.833 8.86123 24.9739 8.8612H24.9742Z" fill="#BC9A6C"/>
<path d="M21.3901 13.2258C21.4726 13.2674 21.5623 13.2922 21.6542 13.2986C21.7461 13.3051 21.8383 13.2931 21.9256 13.2634C22.013 13.2337 22.0937 13.1868 22.1631 13.1255C22.2325 13.0642 22.2894 12.9896 22.3303 12.906C22.7773 11.9956 23.3157 11.1343 23.937 10.3358C23.9954 10.2627 24.0388 10.1786 24.0649 10.0883C24.0909 9.99797 24.099 9.90333 24.0887 9.80984C24.0784 9.71635 24.0499 9.62586 24.0048 9.54362C23.9598 9.46138 23.899 9.38903 23.8261 9.33076C23.7533 9.27249 23.6697 9.22945 23.5803 9.20416C23.4909 9.17886 23.3974 9.1718 23.3053 9.18339C23.2132 9.19498 23.1242 9.22499 23.0436 9.27167C22.963 9.31836 22.8924 9.38079 22.8358 9.45535C22.1545 10.3307 21.5642 11.2749 21.0743 12.2731C20.9915 12.4419 20.9783 12.6371 21.0375 12.8157C21.0968 12.9944 21.2236 13.1419 21.3901 13.2258V13.2258Z" fill="#BC9A6C"/>
<path d="M7.82082 35.2956C7.94173 35.4389 8.11386 35.5277 8.29934 35.5424C8.48482 35.557 8.66846 35.4964 8.80986 35.3739C8.95126 35.2514 9.03883 35.0769 9.05332 34.889C9.0678 34.701 9.00802 34.5149 8.8871 34.3716C8.62592 34.062 8.3743 33.7376 8.13969 33.4074C8.03096 33.2545 7.86672 33.1515 7.68311 33.1213C7.49949 33.091 7.31154 33.1359 7.16059 33.2461C7.00965 33.3563 6.90808 33.5227 6.87823 33.7088C6.84838 33.8949 6.8927 34.0854 7.00142 34.2383C7.2591 34.6005 7.53474 34.9561 7.82082 35.2956Z" fill="#BC9A6C"/>
<path d="M9.5513 37.0532C10.3858 37.7796 11.2921 38.4168 12.2558 38.9546C12.3365 38.9999 12.4252 39.0287 12.5169 39.0392C12.6086 39.0497 12.7015 39.0418 12.7902 39.0159C12.8789 38.99 12.9616 38.9466 13.0337 38.8882C13.1058 38.8298 13.1658 38.7576 13.2103 38.6757C13.2548 38.5937 13.283 38.5037 13.2931 38.4107C13.3032 38.3178 13.2951 38.2237 13.2692 38.1339C13.2434 38.0441 13.2003 37.9604 13.1425 37.8875C13.0846 37.8146 13.0132 37.754 12.9322 37.7092C12.0532 37.2187 11.2266 36.6376 10.4654 35.9751C10.3241 35.854 10.1412 35.7945 9.95677 35.8094C9.7723 35.8243 9.60112 35.9125 9.48053 36.0547C9.35994 36.197 9.2997 36.3818 9.31296 36.5688C9.32622 36.7559 9.41188 36.9301 9.5513 37.0534V37.0532Z" fill="#BC9A6C"/>
</svg>
