<svg width="43" height="42" viewBox="0 0 43 42" fill="none" xmlns="http://www.w3.org/2000/svg">
<path d="M42.1309 13.2921C34.654 11.7279 30.709 13.4479 28.7261 15.1278L28.6559 13.7214C28.6255 13.62 28.6433 13.4431 28.4179 13.2194C25.6461 10.4954 24.0566 8.83374 23.6523 8.54909V5.78448C23.6523 5.04802 23.1958 4.39812 22.498 3.97056V2.39899C22.498 1.07623 21.094 0 19.3684 0C17.6427 0 16.2387 1.07623 16.2387 2.39899V3.97056C15.5409 4.39812 15.0844 5.04802 15.0844 5.78448V8.54909C14.7282 8.79988 13.6519 9.94375 10.3189 13.2194C10.1209 13.4157 10.1124 13.6178 10.0814 13.721L10.042 14.5071C7.1773 14.625 4.72472 15.4152 3.05964 16.8262C1.13504 18.466 0.475663 20.7167 1.2649 23.0508C1.31081 23.2037 1.24296 23.0379 5.95687 31.2882C4.85626 32.6613 4.59834 34.3613 5.34766 35.9271L7.06158 39.5079C7.77502 40.9985 9.64556 42 11.7173 42H27.0194C29.0912 42 30.9617 40.9985 31.6752 39.5079L33.3891 35.9271C34.3617 33.8947 33.6527 31.6299 31.5821 30.1576C30.4545 29.3557 29.7156 28.3206 29.4259 27.1851C31.0973 17.6826 41.7024 15.0807 42.1604 14.9737C42.647 14.86 42.9776 14.5135 42.9703 14.1239C42.9631 13.7343 42.6214 13.395 42.1309 13.2921ZM27.0841 27.3203H27.0809C27.0714 27.1106 26.9768 25.3057 27.0841 27.3203ZM18.5217 2.39899C18.5217 2.04095 18.9013 1.75 19.3684 1.75C19.8354 1.75 20.215 2.04095 20.215 2.39899V3.453H18.5217V2.39899ZM17.3674 5.78448C17.3674 5.46405 17.708 5.203 18.126 5.203H20.6108C21.0288 5.203 21.3693 5.46405 21.3693 5.78448V8.30139H17.3674V5.78448ZM16.4004 10.0514H22.3364L25.1896 12.8798H13.5472L16.4004 10.0514ZM11.7296 26.3974C11.9022 22.9583 12.1486 18.0505 12.3204 14.6298H26.4163C26.4681 15.6212 26.8427 23.3436 27.0804 27.3203H11.598C11.6637 27.0167 11.7139 26.7099 11.7296 26.3974V26.3974ZM3.46597 22.5791C3.46318 22.5701 3.46095 22.5629 3.46039 22.5607C2.88184 20.8552 3.35394 19.1915 4.75461 17.9986C5.96739 16.9709 7.7978 16.3659 9.95413 16.2582L9.44881 26.3299C9.38297 27.634 8.73112 28.8502 7.60251 29.8066L3.46597 22.5791ZM31.2454 35.3247L29.5315 38.9055C29.1469 39.7095 28.1375 40.25 27.0194 40.25H11.7173C10.5992 40.25 9.58982 39.7095 9.20523 38.9055L7.49131 35.3247C7.33135 34.9908 7.24119 34.6474 7.21304 34.3049H31.5237C31.4955 34.6474 31.4054 34.9908 31.2454 35.3247V35.3247ZM30.0292 31.4402C30.482 31.7622 30.827 32.144 31.079 32.5549H7.6579C7.90997 32.144 8.25512 31.7622 8.70806 31.4402C9.66228 30.7616 10.4052 29.9556 10.9188 29.0703H27.818C28.3317 29.9556 29.0747 30.7616 30.0292 31.4402ZM29.1954 21.6656C29.147 17.6395 29.1579 18.3836 29.1519 17.8315C29.4997 17.0706 31.3502 13.9611 38.1418 14.4807C35.399 15.6782 31.5977 17.902 29.1954 21.6656Z" fill="#BC9A6C"/>
</svg>
