<svg width="48" height="74" viewBox="0 0 48 74" fill="none" xmlns="http://www.w3.org/2000/svg">
<path d="M46.5625 28.3427H45.3144C45.0414 23.5517 43.1368 18.9944 39.912 15.4163C36.6873 11.8382 32.3334 9.451 27.5625 8.64528V1.26155C27.5625 0.949271 27.4374 0.649784 27.2147 0.428971C26.992 0.208158 26.6899 0.0841064 26.375 0.0841064H21.625C21.3101 0.0841064 21.008 0.208158 20.7853 0.428971C20.5626 0.649784 20.4375 0.949271 20.4375 1.26155V8.64528C15.6666 9.451 11.3127 11.8382 8.08797 15.4163C4.86324 18.9944 2.95858 23.5517 2.68556 28.3427H1.4375C1.12256 28.3427 0.82051 28.4667 0.597811 28.6876C0.375111 28.9084 0.25 29.2079 0.25 29.5201V34.2299C0.25 34.5422 0.375111 34.8417 0.597811 35.0625C0.82051 35.2833 1.12256 35.4073 1.4375 35.4073H2.76394L7.3845 72.054C7.42038 72.3387 7.55989 72.6007 7.7768 72.7906C7.99372 72.9805 8.27312 73.0854 8.5625 73.0854H39.4375C39.7269 73.0854 40.0063 72.9805 40.2232 72.7906C40.4401 72.6007 40.5796 72.3387 40.6155 72.054L45.2361 35.4073H46.5625C46.8774 35.4073 47.1795 35.2833 47.4022 35.0625C47.6249 34.8417 47.75 34.5422 47.75 34.2299V29.5201C47.75 29.2079 47.6249 28.9084 47.4022 28.6876C47.1795 28.4667 46.8774 28.3427 46.5625 28.3427ZM42.9394 28.3427H27.5625V15.8418C31.0504 16.7354 34.0684 18.9042 36.0104 21.9127L38.0125 20.6434C36.8337 18.8205 35.304 17.246 33.5109 16.0099C31.7177 14.7739 29.6964 13.9005 27.5625 13.4398V11.0249C31.6981 11.8151 35.452 13.9445 38.235 17.0789C41.0181 20.2132 42.6728 24.1751 42.9394 28.3427ZM25.1875 28.3427H22.8125V10.7411C23.2068 10.7164 23.5986 10.6811 24 10.6811C24.4014 10.6811 24.7932 10.7164 25.1875 10.7411V28.3427ZM22.8125 2.43899H25.1875V8.38624C24.7921 8.36387 24.4014 8.32619 24 8.32619C23.5986 8.32619 23.2079 8.36387 22.8125 8.38624V2.43899ZM20.4375 11.0249V28.3427H5.06056C5.32722 24.1751 6.98192 20.2132 9.76499 17.0789C12.548 13.9445 16.3019 11.8151 20.4375 11.0249ZM38.3889 70.7306H9.61106L5.15794 35.4073H20.4375V41.2945H22.8125V35.4073H25.1875V41.2945H27.5625V35.4073H42.8421L38.3889 70.7306ZM45.375 33.0525H2.625V30.6976H45.375V33.0525Z" fill="#F2F2F2"/>
<path d="M25.6043 45.4238C25.0472 44.555 24.2863 43.8327 23.3866 43.3187C22.4868 42.8047 21.475 42.5142 20.4375 42.472C16.5081 42.472 13.3125 46.6978 13.3125 51.8915C13.3125 57.0852 16.5081 61.311 20.4375 61.311C21.8359 61.2891 23.1804 60.7721 24.228 59.8534C24.9601 60.1103 25.7314 60.2398 26.508 60.236C29.3132 60.1125 31.9598 58.911 33.8871 56.8862C37.5909 53.215 38.3438 47.9859 35.5663 45.2296C33.2103 42.8947 29.1063 43.0395 25.6043 45.4238ZM15.6875 51.8915C15.6475 50.7721 15.8373 49.6563 16.2456 48.6118C16.6539 47.5674 17.272 46.6162 18.0625 45.8159V46.9039C18.0651 48.8176 18.5142 50.7048 19.3747 52.4178C20.0713 53.8037 20.435 55.3307 20.4375 56.8792V58.9562C17.863 58.9562 15.6875 55.7206 15.6875 51.8915ZM22.8125 57.9671V56.8792C22.8117 54.9659 22.3647 53.0787 21.5063 51.3652C20.8076 49.9798 20.4418 48.4528 20.4375 46.9039V44.8269C23.012 44.8269 25.1875 48.0625 25.1875 51.8915C25.2275 53.0109 25.0377 54.1268 24.6294 55.1712C24.2211 56.2156 23.603 57.1669 22.8125 57.9671ZM32.208 55.2213C31.4397 56.047 30.5086 56.7076 29.4723 57.162C28.4361 57.6165 27.3168 57.8553 26.1838 57.8635L26.9711 57.0829C28.3356 55.7289 29.3641 54.0791 29.9755 52.2636C30.4704 50.7953 31.302 49.4608 32.4051 48.3651L33.8871 46.8956C35.7064 48.7006 34.9381 52.5132 32.208 55.2213ZM31.5038 45.929L30.726 46.7002C29.3626 48.055 28.3343 49.7045 27.7216 51.5194C27.6765 51.6537 27.6124 51.7832 27.5613 51.9162V51.8915C27.567 50.3974 27.2895 48.9156 26.7431 47.5232C28.1035 46.475 29.7811 45.9132 31.5038 45.929Z" fill="#F2F2F2"/>
<path d="M37.8688 26.2586L40.1797 25.717C39.9726 24.8502 39.6946 24.0016 39.3484 23.1796L37.1563 24.0863C37.4527 24.7901 37.691 25.5166 37.8688 26.2586Z" fill="#F2F2F2"/>
</svg>
