<svg width="47" height="74" viewBox="0 0 47 74" fill="none" xmlns="http://www.w3.org/2000/svg">
<path d="M39.1679 48.5452L31.96 46.3771V40.3921C33.2685 38.4638 34.2508 36.143 34.6136 33.5633C36.2022 33.0668 37.1084 31.0933 37.4449 29.424C37.4891 29.4251 37.5276 29.4285 37.5737 29.4285C38.3887 29.4285 39.3747 29.2894 40.3373 28.8155C40.3439 28.8132 40.3486 28.8076 40.3551 28.8053C40.9069 28.5316 41.4502 28.1494 41.9494 27.6133C43.4289 26.0232 44.18 23.5011 44.18 20.1161C44.18 10.054 34.7715 0.889771 24.44 0.889771C17.3543 0.889771 14.6809 4.50546 13.6836 6.95513C13.3283 7.13721 12.9645 7.37584 12.611 7.72531C11.1146 9.20122 10.3532 11.8239 10.3428 15.5176V15.5222C10.3419 15.5471 10.34 15.5685 10.34 15.5923V23.509V25.4418C9.87752 25.8196 9.4 26.5638 9.4 28.0329C9.4 29.7406 10.3118 32.9073 12.3798 33.561C12.7389 36.2109 13.7334 38.5169 15.04 40.4068V46.3771L7.83208 48.5463C3.22044 49.9317 0 54.8944 0 60.6137V72.1404C0 72.7659 0.42112 73.2714 0.94 73.2714C1.45888 73.2714 1.88 72.7659 1.88 72.1404V60.6137C1.88 55.9349 4.51482 51.8736 8.28798 50.7392L15.7901 48.483C16.8486 49.3493 20.0088 51.6847 23.3064 51.7741L30.08 54.8288V72.1404C30.08 72.7659 30.5011 73.2714 31.02 73.2714C31.5389 73.2714 31.96 72.7659 31.96 72.1404V54.045C31.96 53.5734 31.7165 53.1516 31.3499 52.9853L26.9987 51.022C28.936 50.2337 30.518 49.0462 31.2089 48.4807L38.7111 50.737C42.4852 51.8736 45.12 55.9349 45.12 60.6137V72.1404C45.12 72.7659 45.5411 73.2714 46.06 73.2714C46.5789 73.2714 47 72.7659 47 72.1404V60.6137C47 54.8944 43.7796 49.9317 39.1679 48.5452ZM16.92 42.6608C18.784 44.5189 20.8718 45.6895 22.56 46.0209V49.4386C20.131 49.062 17.8055 47.3769 16.92 46.6678V42.6608ZM24.44 46.0356C26.2345 45.7155 28.2808 44.5246 30.08 42.6981V46.6678C29.1945 47.3769 26.869 49.062 24.44 49.4386V46.0356ZM12.9541 25.4622C12.7032 25.3197 12.4588 25.219 12.22 25.1455V23.8133C12.5227 23.284 13.1835 22.7298 14.4929 22.2718C14.0342 23.6798 13.3875 24.8051 12.9541 25.4622ZM12.22 20.9327V15.8931C13.1036 14.1141 16.4265 11.0684 23.5 11.0684C30.5735 11.0684 33.8964 14.1141 34.78 15.8931V20.9327C32.7364 19.588 29.1391 18.9852 23.5 18.9852C17.8609 18.9852 14.2636 19.588 12.22 20.9327ZM34.78 23.8133V25.1455C34.5412 25.219 34.2959 25.3197 34.044 25.4622C33.6106 24.8085 32.9649 23.6855 32.5061 22.2706C33.8156 22.7287 34.4773 23.284 34.78 23.8133ZM34.78 30.858V27.5545C35.2378 27.2808 35.5339 27.265 35.5997 27.3079C35.6185 27.3204 35.72 27.5059 35.72 28.0329C35.72 28.8336 35.3684 30.1218 34.78 30.858ZM13.7795 9.49753C14.696 8.57127 15.7422 8.77371 15.8042 8.78615C16.3099 8.90604 16.8016 8.50568 16.9012 7.89722C17.0027 7.28424 16.6728 6.68935 16.1642 6.56607C16.1624 6.56607 16.1445 6.56268 16.1398 6.56155C17.3355 4.88433 19.7109 3.1517 24.44 3.1517C34.6625 3.1517 42.3 12.1078 42.3 20.1161C42.3 22.3554 41.9268 24.07 41.1993 25.2451C41.0498 22.6337 39.9679 20.236 39.2046 19.3166C38.837 18.8743 38.243 18.8743 37.8754 19.3166C37.5079 19.7588 37.5079 20.4735 37.8754 20.9157C38.478 21.6418 39.6567 24.3708 39.2384 26.8827C38.6425 27.1021 38.0437 27.1688 37.5286 27.1643C37.3819 26.2584 37.0191 25.7359 36.6591 25.4418V23.509V15.5923C36.6591 15.5799 36.6534 15.5708 36.6534 15.5584C36.6515 15.4826 36.6309 15.4102 36.6158 15.3356C36.6008 15.262 36.5933 15.1885 36.5679 15.1218C36.5632 15.1105 36.5651 15.0981 36.5604 15.0879C36.4476 14.8153 36.2906 14.519 36.0969 14.2114C36.8273 14.2759 37.3641 14.4263 37.3735 14.4297C37.4487 14.45 37.5248 14.4613 37.5991 14.4613C38.0211 14.4613 38.4056 14.1175 38.5118 13.6029C38.6368 12.9967 38.3313 12.3849 37.8284 12.2333C37.7485 12.2096 35.9766 11.6973 34.1464 12.0501C33.2591 11.3218 32.1236 10.6308 30.7258 10.0732C31.4261 9.94426 31.9506 9.93748 31.9609 9.93748C32.4798 9.93521 32.9 9.42854 32.8991 8.80538C32.8991 8.18109 32.4789 7.67555 31.96 7.67555C31.8434 7.67555 29.2246 7.69478 27.2995 9.12544C26.1508 8.92639 24.8931 8.80651 23.5 8.80651C22.7762 8.80651 22.0994 8.8461 21.4423 8.90378C22.5421 8.01823 23.7115 7.64727 23.7294 7.64162C24.2323 7.48894 24.5368 6.87596 24.4118 6.27089C24.2858 5.6647 23.7764 5.296 23.2716 5.44755C23.1296 5.49053 19.9477 6.48238 18.4334 9.38783C15.7619 10.0427 13.8255 11.1725 12.5029 12.3589C12.7596 11.073 13.1854 10.0969 13.7795 9.49753ZM11.4003 27.3079C11.4661 27.2638 11.7613 27.2808 12.22 27.5545V30.858C11.6316 30.1218 11.28 28.8336 11.28 28.0329C11.28 27.5059 11.3815 27.3204 11.4003 27.3079ZM14.1 27.3385C14.6706 26.5604 15.9894 24.5099 16.5985 21.7379C18.2604 21.4371 20.4986 21.2471 23.5 21.2471C26.5014 21.2471 28.7396 21.4371 30.4015 21.7379C31.0106 24.5099 32.3294 26.5592 32.9 27.3373V31.4258C32.9 37.8734 27.5627 43.8664 23.5 43.8664C20.2824 43.8664 14.1 38.6119 14.1 31.4258V27.3385Z" fill="white"/>
<path d="M10.34 65.3547C9.82114 65.3547 9.40002 65.8602 9.40002 66.4856V72.1405C9.40002 72.7659 9.82114 73.2714 10.34 73.2714C10.8589 73.2714 11.28 72.7659 11.28 72.1405V66.4856C11.28 65.8602 10.8589 65.3547 10.34 65.3547Z" fill="white"/>
<path d="M36.66 65.3547C36.1411 65.3547 35.72 65.8602 35.72 66.4856V72.1405C35.72 72.7659 36.1411 73.2714 36.66 73.2714C37.1789 73.2714 37.6 72.7659 37.6 72.1405V66.4856C37.6 65.8602 37.1789 65.3547 36.66 65.3547Z" fill="white"/>
<path d="M27.2599 58.5689C27.7791 58.5689 28.1999 58.0625 28.1999 57.4379C28.1999 56.8133 27.7791 56.3069 27.2599 56.3069C26.7408 56.3069 26.3199 56.8133 26.3199 57.4379C26.3199 58.0625 26.7408 58.5689 27.2599 58.5689Z" fill="white"/>
<path d="M19.74 58.5689C20.2592 58.5689 20.68 58.0625 20.68 57.4379C20.68 56.8133 20.2592 56.3069 19.74 56.3069C19.2209 56.3069 18.8 56.8133 18.8 57.4379C18.8 58.0625 19.2209 58.5689 19.74 58.5689Z" fill="white"/>
<path d="M27.2599 65.3547C27.7791 65.3547 28.1999 64.8483 28.1999 64.2237C28.1999 63.5991 27.7791 63.0928 27.2599 63.0928C26.7408 63.0928 26.3199 63.5991 26.3199 64.2237C26.3199 64.8483 26.7408 65.3547 27.2599 65.3547Z" fill="white"/>
<path d="M19.74 65.3547C20.2592 65.3547 20.68 64.8483 20.68 64.2237C20.68 63.5991 20.2592 63.0928 19.74 63.0928C19.2209 63.0928 18.8 63.5991 18.8 64.2237C18.8 64.8483 19.2209 65.3547 19.74 65.3547Z" fill="white"/>
<path d="M27.2599 72.1405C27.7791 72.1405 28.1999 71.6341 28.1999 71.0095C28.1999 70.3849 27.7791 69.8785 27.2599 69.8785C26.7408 69.8785 26.3199 70.3849 26.3199 71.0095C26.3199 71.6341 26.7408 72.1405 27.2599 72.1405Z" fill="white"/>
<path d="M19.74 72.1405C20.2592 72.1405 20.68 71.6341 20.68 71.0095C20.68 70.3849 20.2592 69.8785 19.74 69.8785C19.2209 69.8785 18.8 70.3849 18.8 71.0095C18.8 71.6341 19.2209 72.1405 19.74 72.1405Z" fill="white"/>
</svg>
