<svg width="69" height="69" viewBox="0 0 69 69" fill="none" xmlns="http://www.w3.org/2000/svg">
<path d="M29.1094 38.8125H10.7812C10.2094 38.8125 9.66093 38.5853 9.25655 38.181C8.85218 37.7766 8.625 37.2281 8.625 36.6562V19.4062C8.625 18.8344 8.85218 18.2859 9.25655 17.8816C9.66093 17.4772 10.2094 17.25 10.7812 17.25H26.9531C27.525 17.25 28.0734 17.4772 28.4778 17.8816C28.8822 18.2859 29.1094 18.8344 29.1094 19.4062V43.125C29.1094 45.9844 27.9735 48.7266 25.9516 50.7485C23.9297 52.7704 21.1875 53.9062 18.3281 53.9062" stroke="#BC9A6C" stroke-width="1.5" stroke-linecap="round" stroke-linejoin="round"/>
<path d="M60.375 38.8125H42.0469C41.475 38.8125 40.9265 38.5853 40.5222 38.181C40.1178 37.7766 39.8906 37.2281 39.8906 36.6562V19.4062C39.8906 18.8344 40.1178 18.2859 40.5222 17.8816C40.9265 17.4772 41.475 17.25 42.0469 17.25H58.2188C58.7906 17.25 59.3391 17.4772 59.7435 17.8816C60.1478 18.2859 60.375 18.8344 60.375 19.4062V43.125C60.375 45.9844 59.2391 48.7266 57.2172 50.7485C55.1954 52.7704 52.4531 53.9062 49.5938 53.9062" stroke="#BC9A6C" stroke-width="1.5" stroke-linecap="round" stroke-linejoin="round"/>
</svg>
