<svg width="43" height="37" viewBox="0 0 43 37" fill="none" xmlns="http://www.w3.org/2000/svg">
<path d="M33.4867 18.2046C32.277 18.2046 31.0861 18.3745 29.9926 18.6985L29.1202 15.236C29.0555 14.9793 28.7199 14.7913 28.3264 14.7913H25.4807L33.7418 1.52043C33.9537 1.18007 33.8954 0.794281 33.5856 0.488406C33.276 0.182602 32.7589 0 32.2024 0H2.08887C1.53235 0 1.01532 0.182602 0.705571 0.488477C0.39593 0.794352 0.337564 1.18014 0.549463 1.52043L8.81062 14.7913H5.96485C5.87622 14.7913 5.79093 14.8013 5.71057 14.819L5.71035 14.8185L0.550214 15.9563C0.301515 16.0112 0.108821 16.1427 0.033718 16.3088C-0.0413854 16.4749 0.0106505 16.6548 0.173088 16.791L3.97632 19.9787L0.678534 33.0665C0.472965 33.8823 0.818655 34.712 1.62677 35.343C2.43488 35.974 3.6154 36.3359 4.86565 36.3359H29.4256C30.6759 36.3359 31.8564 35.974 32.6645 35.343C33.4726 34.712 33.8182 33.8823 33.6128 33.0665L33.2893 31.7826C33.355 31.7836 33.4209 31.7848 33.4867 31.7848C38.1986 31.7848 42.0318 29.2491 42.0318 26.1325V23.8569C42.0318 20.7402 38.1986 18.2046 33.4867 18.2046ZM2.04284 1.08078C2.05936 1.06453 2.07857 1.06453 2.08887 1.06453H32.2024C32.2127 1.06453 32.2319 1.06453 32.2484 1.08078C32.265 1.09703 32.2576 1.10881 32.2536 1.11513L30.823 3.41338H28.3267C27.8823 3.41338 27.522 3.65169 27.522 3.94564C27.522 4.23959 27.8823 4.47791 28.3267 4.47791H30.1604L28.4602 7.20899C28.082 7.12127 27.7565 7.01014 27.3995 6.88701C26.5441 6.59206 25.5748 6.2578 23.7276 6.2578C21.8816 6.2578 20.9128 6.59206 20.0579 6.88701C19.267 7.15988 18.584 7.39557 17.1325 7.39557C15.6826 7.39557 15.0002 7.15995 14.2102 6.88708C13.3561 6.59206 12.3879 6.25773 10.5431 6.25773C8.69861 6.25773 7.73063 6.59206 6.87649 6.88708C6.53595 7.00467 6.20818 7.11723 5.82944 7.20615L4.13104 4.47784H24.8864C25.3308 4.47784 25.6911 4.23952 25.6911 3.94557C25.6911 3.65162 25.3308 3.41331 24.8864 3.41331H3.46841L2.03769 1.11506C2.03372 1.10881 2.02643 1.09703 2.04284 1.08078ZM6.44261 8.19113C6.89462 8.0807 7.27454 7.95061 7.62152 7.83075C8.41139 7.55787 9.09365 7.32226 10.5433 7.32226C11.9932 7.32226 12.6755 7.55787 13.4655 7.83075C14.3197 8.12576 15.2879 8.4601 17.1326 8.4601C18.9786 8.4601 19.9475 8.12584 20.8024 7.83089C21.5932 7.55802 22.2762 7.32233 23.7278 7.32233C25.1806 7.32233 25.8641 7.55802 26.6556 7.83096C27.0072 7.95218 27.3892 8.08354 27.8469 8.19439L23.7403 14.7912H10.5512L6.44261 8.19113ZM23.0775 15.8557L20.9211 19.3196C20.9126 19.3334 20.8924 19.3424 20.8699 19.3424H13.4213C13.3988 19.3424 13.3787 19.3335 13.37 19.3197L12.174 17.3982C12.0048 17.1264 11.5345 16.9968 11.1235 17.1087C10.7126 17.2206 10.5165 17.5317 10.6857 17.8035L11.8818 19.7251C12.1397 20.1393 12.744 20.407 13.4212 20.407H20.8698C21.5471 20.407 22.1512 20.1393 22.4092 19.7251L24.8178 15.8558H27.6446L30.8141 28.4345C30.6574 28.4411 30.4952 28.4447 30.3272 28.4447C28.8744 28.4447 28.1908 28.209 27.3993 27.9361C26.544 27.6411 25.5747 27.3069 23.7275 27.3069C21.8815 27.3069 20.9127 27.6411 20.0578 27.9361C19.2669 28.209 18.5839 28.4446 17.1324 28.4446C15.6825 28.4446 15.0001 28.209 14.2101 27.9362C13.356 27.6411 12.3878 27.3068 10.543 27.3068C8.6985 27.3068 7.73053 27.6411 6.87639 27.9362C6.0864 28.209 5.40425 28.4446 3.95454 28.4446C3.78771 28.4446 3.62999 28.4407 3.47699 28.4344L6.64646 15.8557H23.0775V15.8557ZM2.14616 16.7265L4.95149 16.108L4.33371 18.5599L2.14616 16.7265ZM31.4366 34.6549C30.9349 35.0467 30.2019 35.2714 29.4256 35.2714H4.86565C4.08941 35.2714 3.3565 35.0467 2.85471 34.6549C2.35291 34.2631 2.13833 33.7479 2.266 33.2414L3.21145 29.4894C3.44867 29.5024 3.69479 29.5092 3.95476 29.5092C5.7993 29.5092 6.76738 29.1748 7.62152 28.8798C8.41139 28.607 9.09354 28.3713 10.5433 28.3713C11.9932 28.3713 12.6755 28.607 13.4655 28.8798C14.3197 29.1748 15.2879 29.5092 17.1326 29.5092C18.9786 29.5092 19.9475 29.1749 20.8024 28.88C21.5932 28.6071 22.2762 28.3714 23.7278 28.3714C25.1806 28.3714 25.8641 28.6071 26.6556 28.88C27.5109 29.175 28.4803 29.5092 30.3274 29.5092C30.5874 29.5092 30.839 29.5021 31.0799 29.4889L32.0255 33.2415C32.153 33.748 31.9384 34.2631 31.4366 34.6549ZM40.4225 26.1325C40.4225 28.6622 37.3111 30.7203 33.4867 30.7203C33.3309 30.7203 33.1746 30.7168 33.019 30.7099L30.2682 19.7926C31.2563 19.4499 32.3613 19.2691 33.4867 19.2691C37.3112 19.2691 40.4225 21.3272 40.4225 23.8569V26.1325Z" fill="#BC9A6C"/>
<path d="M17.1456 26.6647C18.5378 26.6647 19.6704 25.9155 19.6704 24.9947C19.6704 24.2577 18.2446 22.835 17.8077 22.4166C17.6575 22.2728 17.41 22.1869 17.1456 22.1869C16.8812 22.1869 16.6337 22.2728 16.4835 22.4166C16.0465 22.835 14.6208 24.2577 14.6208 24.9947C14.6208 25.9155 15.7535 26.6647 17.1456 26.6647ZM17.1458 23.702C17.6748 24.2849 18.0593 24.8151 18.0611 24.9947C18.0611 25.3285 17.6504 25.6002 17.1457 25.6002C16.641 25.6002 16.2303 25.3285 16.2303 24.9947C16.232 24.8155 16.6168 24.2851 17.1458 23.702Z" fill="#BC9A6C"/>
</svg>
