<svg width="43" height="42" viewBox="0 0 43 42" fill="none" xmlns="http://www.w3.org/2000/svg">
<g clip-path="url(#clip0_51_388)">
<mask id="path-1-inside-1_51_388" fill="white">
<path d="M37.4298 8.32388L36.1164 4.38638C36.027 4.11797 35.7762 3.9375 35.4931 3.9375H34.6531L33.4894 0.448875C33.4 0.180469 33.1492 0 32.8661 0H9.22319C8.94013 0 8.68925 0.180469 8.59994 0.448875L7.43618 3.9375H6.5962C6.31314 3.9375 6.06292 4.11797 5.97295 4.38638L4.65945 8.32388C4.59246 8.52403 4.62661 8.74388 4.75008 8.91516C4.87355 9.08644 5.07189 9.1875 5.2827 9.1875H7.30352L9.88191 41.3963C9.90949 41.7375 10.1945 42 10.5367 42H31.5526C31.8948 42 32.1798 41.7375 32.2074 41.3963L34.7858 9.1875H36.8066C37.0174 9.1875 37.2157 9.08644 37.3392 8.9145C37.4627 8.74387 37.4962 8.52403 37.4298 8.32388V8.32388ZM31.6052 32.4594H10.4841L9.20743 16.5145H32.8812L31.6052 32.4594ZM11.1429 40.6875L10.5892 33.7719H31.5001L30.9464 40.6875H11.1429ZM32.9869 15.2027H9.10235L8.62095 9.1875H33.4683L32.9869 15.2027ZM6.19361 7.875L7.06906 5.25H7.9097C8.19275 5.25 8.44363 5.06953 8.53295 4.80112L9.69671 1.3125H32.3932L33.557 4.80112C33.6463 5.06953 33.8965 5.25 34.1796 5.25H35.0196L35.895 7.875H6.19361Z"/>
</mask>
<path d="M37.4298 8.32388L36.1164 4.38638C36.027 4.11797 35.7762 3.9375 35.4931 3.9375H34.6531L33.4894 0.448875C33.4 0.180469 33.1492 0 32.8661 0H9.22319C8.94013 0 8.68925 0.180469 8.59994 0.448875L7.43618 3.9375H6.5962C6.31314 3.9375 6.06292 4.11797 5.97295 4.38638L4.65945 8.32388C4.59246 8.52403 4.62661 8.74388 4.75008 8.91516C4.87355 9.08644 5.07189 9.1875 5.2827 9.1875H7.30352L9.88191 41.3963C9.90949 41.7375 10.1945 42 10.5367 42H31.5526C31.8948 42 32.1798 41.7375 32.2074 41.3963L34.7858 9.1875H36.8066C37.0174 9.1875 37.2157 9.08644 37.3392 8.9145C37.4627 8.74387 37.4962 8.52403 37.4298 8.32388V8.32388ZM31.6052 32.4594H10.4841L9.20743 16.5145H32.8812L31.6052 32.4594ZM11.1429 40.6875L10.5892 33.7719H31.5001L30.9464 40.6875H11.1429ZM32.9869 15.2027H9.10235L8.62095 9.1875H33.4683L32.9869 15.2027ZM6.19361 7.875L7.06906 5.25H7.9097C8.19275 5.25 8.44363 5.06953 8.53295 4.80112L9.69671 1.3125H32.3932L33.557 4.80112C33.6463 5.06953 33.8965 5.25 34.1796 5.25H35.0196L35.895 7.875H6.19361Z" fill="#BC9A6C"/>
<path d="M36.1164 4.38638L28.5256 6.91235L28.5275 6.91792L36.1164 4.38638ZM34.6531 3.9375L27.0642 6.46905L28.8884 11.9375H34.6531V3.9375ZM33.4894 0.448875L25.8986 2.97485L25.9005 2.98042L33.4894 0.448875ZM8.59994 0.448875L16.1888 2.98042L16.1907 2.97485L8.59994 0.448875ZM7.43618 3.9375V11.9375H13.2009L15.0251 6.46905L7.43618 3.9375ZM5.97295 4.38638L-1.61223 1.84369L-1.61594 1.85483L5.97295 4.38638ZM4.65945 8.32388L12.2459 10.8629L12.2483 10.8554L4.65945 8.32388ZM7.30352 9.1875L15.278 8.54912L14.6887 1.1875H7.30352V9.1875ZM9.88191 41.3963L1.90742 42.0346L1.90792 42.0408L9.88191 41.3963ZM32.2074 41.3963L40.1814 42.0408L40.1819 42.0346L32.2074 41.3963ZM34.7858 9.1875V1.1875H27.4006L26.8113 8.54912L34.7858 9.1875ZM37.3392 8.9145L30.8581 4.2246L30.8496 4.23638L30.8411 4.24819L37.3392 8.9145ZM31.6052 32.4594V40.4594H38.9905L39.5797 33.0976L31.6052 32.4594ZM10.4841 32.4594L2.50967 33.098L3.09911 40.4594H10.4841V32.4594ZM9.20743 16.5145V8.51453H0.54126L1.23295 17.1531L9.20743 16.5145ZM32.8812 16.5145L40.8557 17.1527L41.547 8.51453H32.8812V16.5145ZM11.1429 40.6875L3.16838 41.3259L3.75772 48.6875H11.1429V40.6875ZM10.5892 33.7719V25.7719H1.92317L2.61474 34.4104L10.5892 33.7719ZM31.5001 33.7719L39.4746 34.4104L40.1661 25.7719H31.5001V33.7719ZM30.9464 40.6875V48.6875H38.3316L38.9209 41.3259L30.9464 40.6875ZM32.9869 15.2027V23.2027H40.3723L40.9614 15.8409L32.9869 15.2027ZM9.10235 15.2027L1.12785 15.8409L1.71701 23.2027H9.10235V15.2027ZM8.62095 9.1875V1.1875H-0.0448656L0.64645 9.8257L8.62095 9.1875ZM33.4683 9.1875L41.4428 9.8257L42.1342 1.1875L33.4683 1.1875V9.1875ZM6.19361 7.875L-1.39547 5.34402L-4.90758 15.875H6.19361V7.875ZM7.06906 5.25V-2.75H1.30391L-0.520022 2.71902L7.06906 5.25ZM8.53295 4.80112L0.944056 2.26958L0.942202 2.27515L8.53295 4.80112ZM9.69671 1.3125V-6.6875H3.93201L2.10781 -1.21905L9.69671 1.3125ZM32.3932 1.3125L39.9821 -1.21905L38.1579 -6.6875H32.3932V1.3125ZM33.557 4.80112L41.1478 2.27515L41.1459 2.26958L33.557 4.80112ZM35.0196 5.25L42.6087 2.71902L40.7847 -2.75H35.0196V5.25ZM35.895 7.875V15.875H46.9962L43.4841 5.34402L35.895 7.875ZM45.0187 5.79233L43.7052 1.85483L28.5275 6.91792L29.841 10.8554L45.0187 5.79233ZM43.7071 1.8604C42.5268 -1.6864 39.2109 -4.0625 35.4931 -4.0625V11.9375C32.3414 11.9375 29.5272 9.92234 28.5256 6.91235L43.7071 1.8604ZM35.4931 -4.0625H34.6531V11.9375H35.4931V-4.0625ZM42.242 1.40595L41.0783 -2.08267L25.9005 2.98042L27.0642 6.46905L42.242 1.40595ZM41.0801 -2.0771C39.8998 -5.6239 36.5839 -8 32.8661 -8V8C29.7145 8 26.9002 5.98484 25.8986 2.97485L41.0801 -2.0771ZM32.8661 -8H9.22319V8H32.8661V-8ZM9.22319 -8C5.50541 -8 2.18946 -5.6239 1.00919 -2.0771L16.1907 2.97485C15.1891 5.98483 12.3749 8 9.22319 8V-8ZM1.01105 -2.08267L-0.15271 1.40595L15.0251 6.46905L16.1888 2.98042L1.01105 -2.08267ZM7.43618 -4.0625H6.5962V11.9375H7.43618V-4.0625ZM6.5962 -4.0625C2.86575 -4.0625 -0.432231 -1.67638 -1.61222 1.8437L13.5581 6.92905C12.5581 9.91232 9.76053 11.9375 6.5962 11.9375V-4.0625ZM-1.61594 1.85483L-2.92944 5.79233L12.2483 10.8554L13.5618 6.91792L-1.61594 1.85483ZM-2.92694 5.78486C-3.81817 8.44779 -3.35602 11.3508 -1.73957 13.5932L11.2397 4.23707C12.6092 6.13693 13.0031 8.60027 12.2458 10.8629L-2.92694 5.78486ZM-1.73957 13.5932C-0.106712 15.8584 2.51036 17.1875 5.2827 17.1875V1.1875C7.63341 1.1875 9.85381 2.31447 11.2397 4.23707L-1.73957 13.5932ZM5.2827 17.1875H7.30352V1.1875H5.2827V17.1875ZM-0.670972 9.82588L1.90742 42.0346L17.8564 40.7579L15.278 8.54912L-0.670972 9.82588ZM1.90792 42.0408C2.27178 46.5423 6.03166 50 10.5367 50V34C14.3574 34 17.5472 36.9327 17.8559 40.7517L1.90792 42.0408ZM10.5367 50H31.5526V34H10.5367V50ZM31.5526 50C36.0576 50 39.8175 46.5423 40.1814 42.0408L24.2334 40.7517C24.5421 36.9327 27.7319 34 31.5526 34V50ZM40.1819 42.0346L42.7603 9.82588L26.8113 8.54912L24.2329 40.7579L40.1819 42.0346ZM34.7858 17.1875H36.8066V1.1875H34.7858V17.1875ZM36.8066 17.1875C39.5817 17.1875 42.2039 15.8554 43.8373 13.5808L30.8411 4.24819C32.2276 2.31745 34.4531 1.1875 36.8066 1.1875V17.1875ZM43.8203 13.6044C45.4602 11.3382 45.8945 8.43484 45.0237 5.80728L29.836 10.8405C29.0979 8.61322 29.4652 6.14951 30.8581 4.2246L43.8203 13.6044ZM31.6052 24.4594H10.4841V40.4594H31.6052V24.4594ZM18.4586 31.8209L17.1819 15.876L1.23295 17.1531L2.50967 33.098L18.4586 31.8209ZM9.20743 24.5145H32.8812V8.51453H9.20743V24.5145ZM24.9067 15.8763L23.6306 31.8212L39.5797 33.0976L40.8557 17.1527L24.9067 15.8763ZM19.1174 40.0491L18.5637 33.1335L2.61474 34.4104L3.16838 41.3259L19.1174 40.0491ZM10.5892 41.7719H31.5001V25.7719H10.5892V41.7719ZM23.5256 33.1335L22.9719 40.0491L38.9209 41.3259L39.4746 34.4104L23.5256 33.1335ZM30.9464 32.6875H11.1429V48.6875H30.9464V32.6875ZM32.9869 7.20269H9.10235V23.2027H32.9869V7.20269ZM17.0769 14.5645L16.5955 8.5493L0.64645 9.8257L1.12785 15.8409L17.0769 14.5645ZM8.62095 17.1875H33.4683V1.1875H8.62095V17.1875ZM25.4938 8.5493L25.0124 14.5645L40.9614 15.8409L41.4428 9.8257L25.4938 8.5493ZM13.7827 10.406L14.6581 7.78098L-0.520022 2.71902L-1.39547 5.34402L13.7827 10.406ZM7.06906 13.25H7.9097V-2.75H7.06906V13.25ZM7.9097 13.25C11.6275 13.25 14.9434 10.8739 16.1237 7.3271L0.942202 2.27515C1.94384 -0.734833 4.75804 -2.75 7.9097 -2.75V13.25ZM16.1218 7.33267L17.2856 3.84405L2.10781 -1.21905L0.944058 2.26958L16.1218 7.33267ZM9.69671 9.3125H32.3932V-6.6875H9.69671V9.3125ZM24.8044 3.84405L25.9681 7.33267L41.1459 2.26958L39.9821 -1.21905L24.8044 3.84405ZM25.9663 7.3271C27.1436 10.865 30.4525 13.25 34.1796 13.25V-2.75C37.3406 -2.75 40.1491 -0.725952 41.1478 2.27515L25.9663 7.3271ZM34.1796 13.25H35.0196V-2.75H34.1796V13.25ZM27.4305 7.78098L28.3059 10.406L43.4841 5.34402L42.6087 2.71902L27.4305 7.78098ZM35.895 -0.125H6.19361V15.875H35.895V-0.125Z" fill="#BC9A6C" mask="url(#path-1-inside-1_51_388)"/>
<mask id="path-3-inside-2_51_388" fill="white">
<path d="M21.0446 18.375C18.4439 18.375 16.3279 21.1719 16.3279 24.6094C16.3279 28.0468 18.4439 30.8438 21.0446 30.8438C23.6454 30.8438 25.7614 28.0468 25.7614 24.6094C25.7614 21.1719 23.6454 18.375 21.0446 18.375ZM17.6414 24.6094C17.6414 23.4012 17.9448 22.2954 18.4459 21.4384C18.436 21.5657 18.4177 21.6891 18.4177 21.8203C18.4177 23.7523 19.5716 25.2656 21.0446 25.2656C21.7441 25.2656 22.3581 26.2625 22.3581 27.3984C22.3581 28.5344 21.7441 29.5312 21.0446 29.5312C19.1683 29.5312 17.6414 27.3236 17.6414 24.6094ZM23.6434 27.7804C23.6532 27.6531 23.6716 27.5297 23.6716 27.3984C23.6716 25.4664 22.5177 23.9531 21.0446 23.9531C20.3452 23.9531 19.7311 22.9563 19.7311 21.8203C19.7311 20.6843 20.3452 19.6875 21.0446 19.6875C22.921 19.6875 24.4479 21.8951 24.4479 24.6094C24.4479 25.8175 24.1438 26.9233 23.6434 27.7804Z"/>
</mask>
<path d="M21.0446 18.375C18.4439 18.375 16.3279 21.1719 16.3279 24.6094C16.3279 28.0468 18.4439 30.8438 21.0446 30.8438C23.6454 30.8438 25.7614 28.0468 25.7614 24.6094C25.7614 21.1719 23.6454 18.375 21.0446 18.375ZM17.6414 24.6094C17.6414 23.4012 17.9448 22.2954 18.4459 21.4384C18.436 21.5657 18.4177 21.6891 18.4177 21.8203C18.4177 23.7523 19.5716 25.2656 21.0446 25.2656C21.7441 25.2656 22.3581 26.2625 22.3581 27.3984C22.3581 28.5344 21.7441 29.5312 21.0446 29.5312C19.1683 29.5312 17.6414 27.3236 17.6414 24.6094ZM23.6434 27.7804C23.6532 27.6531 23.6716 27.5297 23.6716 27.3984C23.6716 25.4664 22.5177 23.9531 21.0446 23.9531C20.3452 23.9531 19.7311 22.9563 19.7311 21.8203C19.7311 20.6843 20.3452 19.6875 21.0446 19.6875C22.921 19.6875 24.4479 21.8951 24.4479 24.6094C24.4479 25.8175 24.1438 26.9233 23.6434 27.7804Z" fill="#BC9A6C"/>
<path d="M18.4459 21.4384L26.422 22.0556L11.5397 17.4005L18.4459 21.4384ZM23.6434 27.7804L15.6672 27.1632L30.5519 31.8143L23.6434 27.7804ZM21.0446 10.375C16.6836 10.375 13.3283 12.7367 11.3312 15.3764C9.33513 18.0146 8.32788 21.3047 8.32788 24.6094H24.3279C24.3279 24.4766 24.3787 24.6495 24.0908 25.0299C23.8019 25.4118 22.805 26.375 21.0446 26.375V10.375ZM8.32788 24.6094C8.32788 27.9141 9.33513 31.2041 11.3312 33.8424C13.3283 36.482 16.6836 38.8438 21.0446 38.8438V22.8438C22.805 22.8438 23.8019 23.807 24.0908 24.1888C24.3787 24.5693 24.3279 24.7421 24.3279 24.6094H8.32788ZM21.0446 38.8438C25.4057 38.8438 28.761 36.482 30.7581 33.8424C32.7542 31.2041 33.7614 27.9141 33.7614 24.6094H17.7614C17.7614 24.7421 17.7106 24.5693 17.9985 24.1888C18.2874 23.807 19.2843 22.8438 21.0446 22.8438V38.8438ZM33.7614 24.6094C33.7614 21.3047 32.7542 18.0146 30.7581 15.3764C28.761 12.7367 25.4057 10.375 21.0446 10.375V26.375C19.2843 26.375 18.2874 25.4118 17.9985 25.0299C17.7106 24.6495 17.7614 24.4766 17.7614 24.6094H33.7614ZM25.6414 24.6094C25.6414 24.6714 25.634 24.7675 25.6001 24.8984C25.5672 25.0254 25.4988 25.2254 25.3521 25.4762L11.5397 17.4005C10.2619 19.586 9.64138 22.1067 9.64138 24.6094H25.6414ZM10.4697 20.8212C10.474 20.7667 10.4777 20.7308 10.476 20.748C10.4727 20.7811 10.4766 20.7415 10.4715 20.7929C10.4692 20.8159 10.4657 20.8515 10.4619 20.8928C10.4476 21.0482 10.4177 21.3933 10.4177 21.8203H26.4177C26.4177 21.9737 26.4123 22.1007 26.407 22.1916C26.4017 22.2804 26.3959 22.3444 26.3942 22.3629C26.3933 22.3726 26.3929 22.3767 26.3938 22.3682C26.3942 22.3638 26.3947 22.3592 26.3955 22.3503C26.3963 22.3425 26.3975 22.331 26.3987 22.3186C26.4032 22.2728 26.4129 22.1737 26.422 22.0556L10.4697 20.8212ZM10.4177 21.8203C10.4177 26.0208 13.2738 33.2656 21.0446 33.2656V17.2656C23.2586 17.2656 24.7986 18.444 25.5404 19.4168C26.2536 20.3521 26.4177 21.2479 26.4177 21.8203H10.4177ZM21.0446 33.2656C17.407 33.2656 15.5936 30.8184 15.152 30.1014C14.5488 29.122 14.3581 28.1782 14.3581 27.3984H30.3581C30.3581 25.4827 29.8605 23.4725 28.7754 21.7107C27.8518 20.2112 25.3817 17.2656 21.0446 17.2656V33.2656ZM14.3581 27.3984C14.3581 26.6186 14.5488 25.6749 15.152 24.6955C15.5936 23.9784 17.407 21.5312 21.0446 21.5312V37.5312C25.3817 37.5312 27.8518 34.5857 28.7754 33.0862C29.8605 31.3243 30.3581 29.3142 30.3581 27.3984H14.3581ZM21.0446 21.5312C23.486 21.5312 24.8282 22.9723 25.2193 23.538C25.6358 24.1403 25.6414 24.5417 25.6414 24.6094H9.64138C9.64138 27.3913 10.4104 30.2537 12.0594 32.6383C13.6832 34.9864 16.727 37.5312 21.0446 37.5312V21.5312ZM31.6196 28.3976C31.6153 28.4521 31.6116 28.488 31.6133 28.4708C31.6166 28.4376 31.6127 28.4772 31.6178 28.4258C31.6201 28.4028 31.6236 28.3672 31.6274 28.326C31.6417 28.1705 31.6716 27.8255 31.6716 27.3984H15.6716C15.6716 27.2451 15.677 27.1181 15.6823 27.0271C15.6875 26.9384 15.6933 26.8743 15.6951 26.8558C15.6959 26.8461 15.6964 26.842 15.6955 26.8506C15.6951 26.8549 15.6946 26.8595 15.6937 26.8685C15.693 26.8762 15.6918 26.8878 15.6906 26.9001C15.6861 26.9459 15.6764 27.045 15.6672 27.1632L31.6196 28.3976ZM31.6716 27.3984C31.6716 23.1979 28.8155 15.9531 21.0446 15.9531V31.9531C18.8307 31.9531 17.2906 30.7748 16.5489 29.802C15.8357 28.8667 15.6716 27.9708 15.6716 27.3984H31.6716ZM21.0446 15.9531C24.6823 15.9531 26.4957 18.4003 26.9373 19.1174C27.5405 20.0968 27.7311 21.0405 27.7311 21.8203H11.7311C11.7311 23.7361 12.2288 25.7462 13.3139 27.508C14.2374 29.0075 16.7076 31.9531 21.0446 31.9531V15.9531ZM27.7311 21.8203C27.7311 22.6001 27.5405 23.5438 26.9373 24.5232C26.4957 25.2403 24.6823 27.6875 21.0446 27.6875V11.6875C16.7076 11.6875 14.2374 14.6331 13.3139 16.1326C12.2288 17.8944 11.7311 19.9045 11.7311 21.8203H27.7311ZM21.0446 27.6875C18.6033 27.6875 17.2611 26.2465 16.8699 25.6808C16.4534 25.0785 16.4479 24.6771 16.4479 24.6094H32.4479C32.4479 21.8274 31.6789 18.9651 30.0299 16.5804C28.4061 14.2323 25.3623 11.6875 21.0446 11.6875V27.6875ZM16.4479 24.6094C16.4479 24.5458 16.4555 24.4494 16.4893 24.3192C16.522 24.193 16.5898 23.9949 16.7349 23.7465L30.5519 31.8143C31.8252 29.6337 32.4479 27.1155 32.4479 24.6094H16.4479Z" fill="#BC9A6C" mask="url(#path-3-inside-2_51_388)"/>
<path d="M14.5367 4.59375C14.5367 4.81843 14.5146 5.03786 14.4724 5.25H11.855C11.8128 5.03786 11.7907 4.81843 11.7907 4.59375C11.7907 4.36907 11.8128 4.14964 11.855 3.9375L14.4724 3.9375C14.5146 4.14964 14.5367 4.36907 14.5367 4.59375Z" fill="#BC9A6C" stroke="#BC9A6C" stroke-width="8"/>
<mask id="path-6-inside-3_51_388" fill="white">
<path d="M30.2391 3.9375H20.3879C20.0254 3.9375 19.7311 4.2315 19.7311 4.59375C19.7311 4.956 20.0254 5.25 20.3879 5.25H30.2391C30.6016 5.25 30.8958 4.956 30.8958 4.59375C30.8958 4.2315 30.6016 3.9375 30.2391 3.9375Z"/>
</mask>
<path d="M30.2391 3.9375H20.3879C20.0254 3.9375 19.7311 4.2315 19.7311 4.59375C19.7311 4.956 20.0254 5.25 20.3879 5.25H30.2391C30.6016 5.25 30.8958 4.956 30.8958 4.59375C30.8958 4.2315 30.6016 3.9375 30.2391 3.9375Z" fill="#BC9A6C"/>
<path d="M30.2391 -4.0625H20.3879V11.9375H30.2391V-4.0625ZM20.3879 -4.0625C15.6128 -4.0625 11.7311 -0.192492 11.7311 4.59375H27.7311C27.7311 8.65549 24.4379 11.9375 20.3879 11.9375V-4.0625ZM11.7311 4.59375C11.7311 9.37999 15.6128 13.25 20.3879 13.25V-2.75C24.4379 -2.75 27.7311 0.532008 27.7311 4.59375H11.7311ZM20.3879 13.25H30.2391V-2.75H20.3879V13.25ZM30.2391 13.25C35.0142 13.25 38.8958 9.37999 38.8958 4.59375H22.8958C22.8958 0.532008 26.1891 -2.75 30.2391 -2.75V13.25ZM38.8958 4.59375C38.8958 -0.192492 35.0142 -4.0625 30.2391 -4.0625V11.9375C26.1891 11.9375 22.8958 8.65549 22.8958 4.59375H38.8958Z" fill="#BC9A6C" mask="url(#path-6-inside-3_51_388)"/>
</g>
<defs>
<clipPath id="clip0_51_388">
<rect width="42.0318" height="42" fill="white" transform="translate(0.0287476)"/>
</clipPath>
</defs>
</svg>
