<svg width="43" height="37" viewBox="0 0 43 37" fill="none" xmlns="http://www.w3.org/2000/svg">
<path d="M21.5807 17.7994C19.8568 16.3938 17.5201 15.6207 15.0031 15.6207C12.4861 15.6207 10.1495 16.3944 8.42607 17.7994C6.80162 19.1233 5.90631 20.8711 5.90631 22.7213C5.90631 24.5711 6.80162 26.3173 8.42607 27.6429C10.1495 29.0484 12.4861 29.8215 15.0031 29.8215C17.5201 29.8215 19.8568 29.0478 21.5807 27.6429C23.2046 26.318 24.1005 24.5705 24.1005 22.7213C24.1005 20.8717 23.2046 19.1233 21.5807 17.7994ZM10.6632 26.6989C9.37221 25.6499 8.66165 24.2331 8.66165 22.7193C8.66165 21.2059 9.37221 19.793 10.6632 18.7401C11.8329 17.7872 13.3388 17.2555 14.9108 17.2353C14.7151 17.5468 14.3762 17.783 13.9466 18.0833C13.1458 18.6425 12.1554 19.3371 12.1554 20.6604C12.1554 21.9837 13.1513 22.6774 13.9466 23.2376C14.6353 23.7216 15.0982 24.0443 15.0982 24.7779C15.0982 25.5113 14.6407 25.834 13.9477 26.318C13.4229 26.6851 12.8151 27.1121 12.4588 27.7357C11.7575 27.4569 11.1492 27.1054 10.6632 26.6989ZM19.343 26.6989C18.175 27.6528 16.6691 28.1845 15.0955 28.2046C15.2912 27.8922 15.6301 27.655 16.0602 27.3548C16.8604 26.7965 17.8508 26.1009 17.8508 24.7779C17.8508 23.4546 16.855 22.7606 16.0602 22.2008C15.371 21.7165 14.908 21.3938 14.908 20.6604C14.908 19.9271 15.3672 19.6041 16.0558 19.1201C16.5806 18.7539 17.1884 18.3269 17.5437 17.704C18.2438 17.9828 18.8505 18.3336 19.3348 18.7401C20.6269 19.793 21.338 21.2065 21.338 22.7193C21.338 24.2325 20.634 25.6467 19.3419 26.6989H19.343Z" fill="#BC9A6C"/>
<path d="M39.3104 8.33326L36.1254 4.95649V2.30187C36.1233 1.03105 34.3643 0.00128041 32.1944 0H9.83689C7.66695 0.00128041 5.90858 1.03105 5.9064 2.30187V4.95649L2.7209 8.33326C0.938486 10.226 0.00218634 12.3522 0 14.5138V33.6605C0.00382613 35.1375 2.04751 36.3343 4.57 36.3359H37.4618C39.9838 36.3343 42.028 35.1375 42.0318 33.6605V14.5138C42.0291 12.3522 41.0934 10.226 39.3104 8.33326ZM25.3954 1.61364H32.1917C32.8405 1.61428 33.3663 1.9219 33.3668 2.30187V4.35789H25.3982L25.3954 1.61364ZM19.1955 5.56724C19.318 5.44496 19.3819 5.30572 19.3819 5.16391V1.61364H22.6357V4.94752L20.2663 7.34094H17.4503L19.1955 5.56724ZM8.66173 2.30187C8.66228 1.9219 9.18809 1.61428 9.83689 1.61364H16.6331V4.35693H8.66173V2.30187ZM2.75534 33.6605V14.5138C2.75752 12.6249 3.57576 10.7673 5.13353 9.11335L8.09656 5.97153H15.6203L13.8669 7.74651C13.6209 7.99619 13.6204 8.30349 13.8663 8.55317C14.1123 8.80285 14.5665 8.9565 15.0584 8.95682H21.0665C21.5584 8.9565 22.0126 8.80285 22.2586 8.55349L24.8139 5.97153H32.4125L30.1846 8.33326C28.4022 10.226 27.4659 12.3522 27.4637 14.5138V34.7239H4.57C3.56756 34.7236 2.75534 34.2476 2.75534 33.6605ZM39.276 33.6605C39.2749 34.2469 38.4632 34.722 37.4618 34.7223H36.1254V23.6553C36.1254 23.2098 35.5084 22.8487 34.7475 22.8487C33.9867 22.8487 33.3701 23.2098 33.3701 23.6553V34.7239H30.219V14.5138C30.2212 12.6249 31.0395 10.7673 32.5967 9.11335L34.7475 6.83325L36.8983 9.11335C38.4561 10.7673 39.2738 12.6249 39.276 14.5138V33.6605Z" fill="#BC9A6C"/>
</svg>
